<svg width="36" height="44" viewBox="0 0 36 44" fill="none" xmlns="http://www.w3.org/2000/svg">
<path d="M32 2H4C2.89543 2 2 2.89543 2 4V40C2 41.1046 2.89543 42 4 42H32C33.1046 42 34 41.1046 34 40V4C34 2.89543 33.1046 2 32 2Z" stroke="black" stroke-width="3"/>
<path d="M2 10C2 10.5304 2.21071 11.0391 2.58579 11.4142C2.96086 11.7893 3.46957 12 4 12H32C32.5304 12 33.0391 11.7893 33.4142 11.4142C33.7893 11.0391 34 10.5304 34 10V4C34 3.46957 33.7893 2.96086 33.4142 2.58579C33.0391 2.21071 32.5304 2 32 2H4C3.46957 2 2.96086 2.21071 2.58579 2.58579C2.21071 2.96086 2 3.46957 2 4V10Z" stroke="black" stroke-width="3"/>
<path d="M6.5 8C7.32843 8 8 7.32843 8 6.5C8 5.67157 7.32843 5 6.5 5C5.67157 5 5 5.67157 5 6.5C5 7.32843 5.67157 8 6.5 8Z" fill="black"/>
<path d="M12.5 8C13.3284 8 14 7.32843 14 6.5C14 5.67157 13.3284 5 12.5 5C11.6716 5 11 5.67157 11 6.5C11 7.32843 11.6716 8 12.5 8Z" fill="black"/>
<path d="M18 34C21.866 34 25 30.866 25 27C25 23.134 21.866 20 18 20C14.134 20 11 23.134 11 27C11 30.866 14.134 34 18 34Z" stroke="black" stroke-width="3"/>
</svg>
